<?xml version="1.0" encoding="UTF-8" standalone="no"?>
<!DOCTYPE svg PUBLIC "-//W3C//DTD SVG 1.1//EN" "http://www.w3.org/Graphics/SVG/1.1/DTD/svg11.dtd">
<svg width="100%" height="100%" viewBox="0 0 242 43" version="1.1" xmlns="http://www.w3.org/2000/svg" xmlns:xlink="http://www.w3.org/1999/xlink" xml:space="preserve" xmlns:serif="http://www.serif.com/" style="fill-rule:evenodd;clip-rule:evenodd;stroke-linejoin:round;stroke-miterlimit:2;">
    <g transform="matrix(1,0,0,1,0,-53.396)">
        <g id="logo-inverted" serif:id="logo inverted" transform="matrix(0.716995,0,0,0.183735,-67.3776,30.5414)">
            <rect x="93.972" y="124.389" width="337.189" height="228.99"/>
            <g transform="matrix(1.39471,0,0,5.44263,93.9722,124.389)">
                <g transform="matrix(32.5284,0,0,32.5284,3.67724,35.6407)">
                    <path d="M0.633,-0.829L0.615,-0.846L0.087,-0.846L0.069,-0.829L0.069,-0.018L0.087,-0L0.192,-0L0.21,-0.018L0.21,-0.353L0.474,-0.353L0.492,-0.371L0.492,-0.476L0.474,-0.494L0.21,-0.494L0.21,-0.706L0.615,-0.706L0.623,-0.713L0.633,-0.723L0.633,-0.829Z" style="fill:white;fill-rule:nonzero;"/>
                </g>
                <g transform="matrix(32.5284,0,0,32.5284,23.4471,35.6407)">
                    <path d="M0.041,-0.283C0.041,-0.127 0.168,-0 0.324,-0C0.48,-0 0.607,-0.127 0.607,-0.283L0.607,-0.562C0.607,-0.718 0.48,-0.845 0.324,-0.845C0.168,-0.845 0.041,-0.718 0.041,-0.562L0.041,-0.283ZM0.465,-0.283C0.465,-0.205 0.402,-0.141 0.324,-0.141C0.246,-0.141 0.183,-0.205 0.183,-0.283L0.183,-0.562C0.183,-0.64 0.246,-0.703 0.324,-0.703C0.402,-0.703 0.465,-0.64 0.465,-0.562L0.465,-0.283Z" style="fill:white;fill-rule:nonzero;"/>
                </g>
                <g transform="matrix(32.5284,0,0,32.5284,37.5906,35.6407)">
                    <path d="M0.041,-0.283C0.041,-0.127 0.168,-0 0.324,-0C0.48,-0 0.607,-0.127 0.607,-0.283L0.607,-0.562C0.607,-0.718 0.48,-0.845 0.324,-0.845C0.168,-0.845 0.041,-0.718 0.041,-0.562L0.041,-0.283ZM0.465,-0.283C0.465,-0.205 0.402,-0.141 0.324,-0.141C0.246,-0.141 0.183,-0.205 0.183,-0.283L0.183,-0.562C0.183,-0.64 0.246,-0.703 0.324,-0.703C0.402,-0.703 0.465,-0.64 0.465,-0.562L0.465,-0.283Z" style="fill:white;fill-rule:nonzero;"/>
                </g>
                <g transform="matrix(32.5284,0,0,32.5284,57.734,35.6407)">
                    <path d="M0.089,-0L0.353,-0C0.508,-0 0.634,-0.125 0.635,-0.279L0.636,-0.279L0.636,-0.565L0.635,-0.565C0.634,-0.72 0.508,-0.845 0.353,-0.845L0.089,-0.845L0.072,-0.828L0.072,-0.017L0.089,-0ZM0.494,-0.282C0.494,-0.204 0.431,-0.141 0.353,-0.141L0.213,-0.141L0.213,-0.704L0.353,-0.704C0.431,-0.704 0.494,-0.641 0.494,-0.563L0.494,-0.282Z" style="fill:white;fill-rule:nonzero;"/>
                </g>
                <g transform="matrix(32.5284,0,0,32.5284,80.5039,35.6407)">
                    <path d="M0.59,-0.848L0.06,-0.848L0.042,-0.83L0.042,-0.725L0.06,-0.707L0.254,-0.707L0.254,-0.018L0.272,-0L0.378,-0L0.396,-0.018L0.396,-0.707L0.59,-0.707L0.608,-0.725L0.608,-0.83L0.59,-0.848Z" style="fill:white;fill-rule:nonzero;"/>
                </g>
                <g transform="matrix(32.5284,0,0,32.5284,100.647,35.6407)">
                    <path d="M0.093,-0.846L0.075,-0.829L0.075,-0.018L0.093,-0L0.199,-0L0.216,-0.018L0.216,-0.282L0.299,-0.282L0.486,-0L0.621,-0L0.639,-0.018L0.453,-0.299C0.561,-0.338 0.639,-0.442 0.639,-0.564L0.639,-0.565C0.639,-0.72 0.512,-0.846 0.357,-0.846L0.093,-0.846ZM0.357,-0.423L0.216,-0.423L0.216,-0.705L0.357,-0.705C0.435,-0.705 0.498,-0.642 0.498,-0.564C0.498,-0.487 0.435,-0.424 0.357,-0.424L0.357,-0.423Z" style="fill:white;fill-rule:nonzero;"/>
                </g>
                <g transform="matrix(32.5284,0,0,32.5284,121.417,35.6407)">
                    <path d="M0.702,-0.018L0.702,-0.072L0.427,-0.828L0.417,-0.838L0.418,-0.838L0.409,-0.846L0.291,-0.846L0.283,-0.838L0.273,-0.829L-0.002,-0.072L-0.002,-0.018L0.015,-0L0.121,-0L0.171,-0.141L0.529,-0.141L0.579,-0L0.685,-0L0.702,-0.018ZM0.479,-0.282L0.221,-0.282L0.35,-0.647L0.479,-0.282Z" style="fill:white;fill-rule:nonzero;"/>
                </g>
                <g transform="matrix(32.5284,0,0,32.5284,143.187,35.6407)">
                    <path d="M0.485,-0.564L0.591,-0.564L0.599,-0.572L0.609,-0.581C0.6,-0.729 0.482,-0.846 0.332,-0.846C0.176,-0.846 0.043,-0.719 0.043,-0.563L0.043,-0.283C0.043,-0.127 0.176,-0 0.332,-0C0.482,-0 0.6,-0.117 0.609,-0.265L0.591,-0.283L0.485,-0.283L0.467,-0.265C0.458,-0.196 0.404,-0.142 0.332,-0.142C0.254,-0.142 0.185,-0.205 0.185,-0.283L0.185,-0.563C0.185,-0.641 0.254,-0.704 0.332,-0.704C0.404,-0.704 0.458,-0.651 0.467,-0.581L0.485,-0.564Z" style="fill:white;fill-rule:nonzero;"/>
                </g>
                <g transform="matrix(-32.5284,0,0,32.5284,184.231,35.6407)">
                    <path d="M0.088,-0L0.194,-0L0.211,-0.017L0.211,-0.281L0.314,-0.415L0.49,-0L0.616,-0L0.634,-0.018L0.411,-0.539L0.634,-0.827L0.616,-0.845L0.487,-0.845L0.211,-0.491L0.211,-0.827L0.194,-0.844L0.088,-0.844L0.07,-0.827L0.07,-0.017L0.088,-0Z" style="fill:white;fill-rule:nonzero;"/>
                </g>
                <g transform="matrix(32.5284,0,0,32.5284,183.1,35.6407)">
                    <path d="M0.086,-0L0.613,-0L0.622,-0.008L0.631,-0.018L0.631,-0.123L0.614,-0.141L0.209,-0.141L0.209,-0.353L0.473,-0.353L0.481,-0.36L0.49,-0.37L0.49,-0.476L0.473,-0.493L0.209,-0.493L0.209,-0.705L0.613,-0.705L0.622,-0.713L0.631,-0.722L0.631,-0.828L0.614,-0.845L0.086,-0.845L0.068,-0.828L0.068,-0.018L0.086,-0Z" style="fill:white;fill-rule:nonzero;"/>
                </g>
                <g transform="matrix(32.5284,0,0,32.5284,203.87,35.6407)">
                    <path d="M0.093,-0.846L0.075,-0.829L0.075,-0.018L0.093,-0L0.199,-0L0.216,-0.018L0.216,-0.282L0.299,-0.282L0.486,-0L0.621,-0L0.639,-0.018L0.453,-0.299C0.561,-0.338 0.639,-0.442 0.639,-0.564L0.639,-0.565C0.639,-0.72 0.512,-0.846 0.357,-0.846L0.093,-0.846ZM0.357,-0.423L0.216,-0.423L0.216,-0.705L0.357,-0.705C0.435,-0.705 0.498,-0.642 0.498,-0.564C0.498,-0.487 0.435,-0.424 0.357,-0.424L0.357,-0.423Z" style="fill:white;fill-rule:nonzero;"/>
                </g>
            </g>
            <g transform="matrix(1.14728,0,0,4.47708,156.422,108.972)">
                <g transform="matrix(9.20306,0,0,9.20306,220.87,19.3527)">
                    <path d="M0.159,-0.597L0.159,-0.4C0.193,-0.417 0.229,-0.426 0.266,-0.426C0.323,-0.426 0.369,-0.407 0.404,-0.37C0.439,-0.332 0.456,-0.28 0.456,-0.214C0.456,-0.17 0.446,-0.131 0.427,-0.097C0.408,-0.062 0.381,-0.035 0.346,-0.017C0.311,0.003 0.27,0.012 0.224,0.012C0.183,0.012 0.147,0.005 0.115,-0.01C0.083,-0.024 0.053,-0.045 0.026,-0.073L0.082,-0.127C0.102,-0.105 0.123,-0.089 0.146,-0.079C0.169,-0.068 0.194,-0.063 0.223,-0.063C0.266,-0.063 0.299,-0.076 0.324,-0.103C0.348,-0.13 0.36,-0.167 0.36,-0.216C0.36,-0.265 0.349,-0.3 0.327,-0.322C0.305,-0.344 0.275,-0.355 0.238,-0.355C0.221,-0.355 0.205,-0.353 0.19,-0.35C0.175,-0.346 0.16,-0.34 0.143,-0.332L0.071,-0.332L0.071,-0.669L0.433,-0.669L0.42,-0.597L0.159,-0.597Z" style="fill:white;fill-rule:nonzero;"/>
                </g>
                <g transform="matrix(9.20306,0,0,9.20306,225.48,19.3527)">
                    <path d="M0.225,-0.679C0.266,-0.679 0.302,-0.671 0.332,-0.656C0.361,-0.641 0.384,-0.62 0.4,-0.594C0.415,-0.568 0.423,-0.54 0.423,-0.509C0.423,-0.468 0.411,-0.435 0.388,-0.409C0.364,-0.382 0.332,-0.364 0.293,-0.355C0.338,-0.351 0.374,-0.335 0.402,-0.307C0.43,-0.279 0.444,-0.241 0.444,-0.193C0.444,-0.154 0.435,-0.119 0.416,-0.088C0.397,-0.057 0.371,-0.032 0.336,-0.015C0.301,0.003 0.261,0.012 0.216,0.012C0.175,0.012 0.138,0.005 0.104,-0.011C0.07,-0.025 0.04,-0.048 0.015,-0.078L0.071,-0.13C0.111,-0.085 0.158,-0.063 0.213,-0.063C0.255,-0.063 0.288,-0.075 0.312,-0.099C0.336,-0.122 0.348,-0.154 0.348,-0.194C0.348,-0.238 0.337,-0.269 0.314,-0.287C0.291,-0.305 0.258,-0.314 0.215,-0.314L0.165,-0.314L0.176,-0.385L0.21,-0.385C0.245,-0.385 0.274,-0.395 0.297,-0.416C0.32,-0.437 0.331,-0.466 0.331,-0.503C0.331,-0.534 0.321,-0.559 0.301,-0.578C0.281,-0.596 0.254,-0.605 0.22,-0.605C0.194,-0.605 0.17,-0.6 0.149,-0.591C0.127,-0.582 0.105,-0.566 0.082,-0.545L0.034,-0.6C0.091,-0.653 0.154,-0.679 0.225,-0.679Z" style="fill:white;fill-rule:nonzero;"/>
                </g>
                <g transform="matrix(9.20306,0,0,9.20306,230.073,19.3527)">
                    <path d="M0.231,-0L0.231,-0.571L0.075,-0.476L0.035,-0.541L0.242,-0.669L0.323,-0.669L0.323,-0L0.231,-0Z" style="fill:white;fill-rule:nonzero;"/>
                </g>
            </g>
            <g transform="matrix(1.39471,0,0,5.75942,97.5556,80.5737)">
                <rect x="115.47" y="39.065" width="5.52" height="2.24" style="fill:white;"/>
            </g>
        </g>
    </g>
</svg>
